<svg width="21" height="24" viewBox="0 0 21 24" fill="none" xmlns="http://www.w3.org/2000/svg">
<path d="M10.1053 23.9999C15.6772 23.9999 20.2107 19.4664 20.2107 13.8945C20.2107 9.66292 17.5934 6.03637 13.8948 4.5332V7.34122C16.1559 8.65492 17.6843 11.0966 17.6843 13.8945C17.6843 18.0743 14.2852 21.4735 10.1053 21.4735C5.92552 21.4735 2.52633 18.0743 2.52633 13.8945C2.52633 11.0966 4.05477 8.65365 6.31583 7.34122V4.5332C2.61728 6.03637 0 9.66292 0 13.8945C0 19.4664 4.53351 23.9999 10.1053 23.9999Z" fill="white"/>
<path d="M8.84229 0H11.3686V12.6317H8.84229V0Z" fill="white"/>
</svg>
