<svg width="81" height="79" viewBox="0 0 81 79" fill="none" xmlns="http://www.w3.org/2000/svg">
<circle cx="39.5388" cy="39.3855" r="15.3605" stroke="#00ACB0" stroke-width="11.8157"/>
<path d="M40.4575 0C40.8091 0 41.1595 0.00445527 41.5089 0.0133114C45.9588 2.00678 47.2571 8.78418 41.5284 12.098C41.1731 12.0849 40.8161 12.0783 40.4575 12.0783C25.8062 12.0783 13.7865 23.0815 12.5913 37.0874C10.8046 35.8865 8.64682 35.1847 6.32317 35.1847C4.18924 35.1847 2.1952 35.7766 0.5 36.8033C1.85217 16.2549 19.225 0 40.4575 0Z" fill="#00ACB0"/>
<path d="M68.4215 39.3858C68.4215 27.5902 60.7628 17.5413 50.0365 13.7225C52.5661 10.0289 53.0338 5.51399 51.7334 1.58315C68.3582 6.37293 80.4998 21.4847 80.4998 39.3858C80.4998 61.138 62.5723 78.7716 40.4575 78.7716C39.9603 78.7716 39.4651 78.7627 38.9722 78.745C37.5045 77.815 36.5444 76.8514 35.9398 75.9686C34.9548 74.5305 34.7654 73.105 35.0337 71.8113C35.5405 69.368 37.7115 67.2315 40.2682 66.6927C40.3313 66.6931 40.3944 66.6933 40.4575 66.6933C55.9016 66.6933 68.4215 54.4673 68.4215 39.3858Z" fill="#00ACB0"/>
</svg>
