<svg width="28" height="28" viewBox="0 0 28 28" fill="none" xmlns="http://www.w3.org/2000/svg">
<path d="M3.60538 20L4.78511 20.2196C4.83753 19.9381 4.78752 19.6471 4.64412 19.3991L3.60538 20ZM2.6 25.4L1.42027 25.1804C1.34787 25.5692 1.47176 25.9688 1.75147 26.2485C2.03118 26.5282 2.43076 26.6521 2.81964 26.5797L2.6 25.4ZM8 24.3946L8.60084 23.3559C8.35294 23.2125 8.06192 23.1625 7.78036 23.2149L8 24.3946ZM10.5229 9.25975C10.2239 9.85121 10.4609 10.5731 11.0524 10.8721C11.6438 11.1711 12.3657 10.934 12.6647 10.3426L10.5229 9.25975ZM13.9938 13.3615L13.3333 12.3597L12.7938 12.7154V13.3615H13.9938ZM12.7938 15.2209C12.7938 15.8837 13.3311 16.4209 13.9938 16.4209C14.6565 16.4209 15.1938 15.8837 15.1938 15.2209H12.7938ZM15.1938 19.4209C15.1938 18.7582 14.6565 18.2209 13.9938 18.2209C13.3311 18.2209 12.7938 18.7582 12.7938 19.4209H15.1938ZM12.7938 20.0209C12.7938 20.6837 13.3311 21.2209 13.9938 21.2209C14.6565 21.2209 15.1938 20.6837 15.1938 20.0209H12.7938ZM14 27.2C21.2901 27.2 27.2 21.2901 27.2 14H24.8C24.8 19.9646 19.9646 24.8 14 24.8V27.2ZM27.2 14C27.2 6.70984 21.2901 0.8 14 0.8V3.2C19.9646 3.2 24.8 8.03533 24.8 14H27.2ZM14 0.8C6.70984 0.8 0.8 6.70984 0.8 14H3.2C3.2 8.03532 8.03532 3.2 14 3.2V0.8ZM0.8 14C0.8 16.4023 1.44283 18.6581 2.56665 20.6009L4.64412 19.3991C3.7259 17.8118 3.2 15.9691 3.2 14H0.8ZM2.42566 19.7804L1.42027 25.1804L3.77973 25.6196L4.78511 20.2196L2.42566 19.7804ZM2.81964 26.5797L8.21964 25.5744L7.78036 23.2149L2.38036 24.2203L2.81964 26.5797ZM7.39916 25.4334C9.3419 26.5571 11.5977 27.2 14 27.2V24.8C12.0309 24.8 10.1882 24.2741 8.60084 23.3559L7.39916 25.4334ZM12.6647 10.3426C12.9396 9.79879 13.1444 9.54077 13.3134 9.40706C13.4405 9.30646 13.6144 9.22094 13.9938 9.22094V6.82094C13.1732 6.82094 12.4471 7.03213 11.8242 7.52494C11.2432 7.98463 10.848 8.61673 10.5229 9.25975L12.6647 10.3426ZM13.9938 9.22094C14.7437 9.22094 15.1938 9.78469 15.1938 10.3946H17.5938C17.5938 8.63082 16.2345 6.82094 13.9938 6.82094V9.22094ZM15.1938 10.3946C15.1938 10.7283 15.1294 10.8933 14.9511 11.1048C14.7028 11.3995 14.244 11.7592 13.3333 12.3597L14.6544 14.3634C15.5436 13.7771 16.2848 13.2467 16.7865 12.6513C17.3583 11.9727 17.5938 11.2477 17.5938 10.3946H15.1938ZM12.7938 13.3615V15.2209H15.1938V13.3615H12.7938ZM12.7938 19.4209V20.0209H15.1938V19.4209H12.7938Z" fill="white"/>
</svg>
