<svg width="24" height="24" viewBox="0 0 24 25" fill="none" xmlns="http://www.w3.org/2000/svg">
<mask id="path-1-inside-1_708_2451" fill="white">
<path d="M12 6.77147V18.7715ZM6 12.7715H18Z"/>
<path d="M12 24.7715C18.6274 24.7715 24 19.3989 24 12.7715C24 6.14407 18.6274 0.771484 12 0.771484C5.37258 0.771484 0 6.14407 0 12.7715C0 19.3989 5.37258 24.7715 12 24.7715Z"/>
</mask>
<path d="M13.5 6.77147C13.5 5.94305 12.8284 5.27147 12 5.27147C11.1716 5.27147 10.5 5.94305 10.5 6.77147H13.5ZM10.5 18.7715C10.5 19.5999 11.1716 20.2715 12 20.2715C12.8284 20.2715 13.5 19.5999 13.5 18.7715H10.5ZM6 11.2715C5.17157 11.2715 4.5 11.943 4.5 12.7715C4.5 13.5999 5.17157 14.2715 6 14.2715V11.2715ZM18 14.2715C18.8284 14.2715 19.5 13.5999 19.5 12.7715C19.5 11.943 18.8284 11.2715 18 11.2715V14.2715ZM10.5 6.77147V18.7715H13.5V6.77147H10.5ZM6 14.2715H18V11.2715H6V14.2715ZM22.5 12.7715C22.5 18.5705 17.799 23.2715 12 23.2715V26.2715C19.4558 26.2715 25.5 20.2273 25.5 12.7715H22.5ZM12 23.2715C6.20101 23.2715 1.5 18.5705 1.5 12.7715H-1.5C-1.5 20.2273 4.54416 26.2715 12 26.2715V23.2715ZM1.5 12.7715C1.5 6.97249 6.20101 2.27148 12 2.27148V-0.728516C4.54416 -0.728516 -1.5 5.31564 -1.5 12.7715H1.5ZM12 2.27148C17.799 2.27148 22.5 6.97249 22.5 12.7715H25.5C25.5 5.31564 19.4558 -0.728516 12 -0.728516V2.27148Z" fill="white" mask="url(#path-1-inside-1_708_2451)"/>
</svg>
