<svg width="26" height="26" viewBox="0 0 26 26" fill="none" xmlns="http://www.w3.org/2000/svg">
<path fill-rule="evenodd" clip-rule="evenodd" d="M13 1C13.6023 1 14.1942 1.04437 14.7726 1.13002L15.6433 3.76849C16.4069 3.98673 17.1316 4.29716 17.8046 4.68697L20.3075 3.48079C21.1931 4.1617 21.9811 4.96344 22.6467 5.86135L21.3964 8.34226C21.7738 9.0212 22.0713 9.7507 22.2761 10.518L24.8986 11.4332C24.9655 11.946 25 12.469 25 13C25 13.6023 24.9556 14.1942 24.87 14.7726L22.2315 15.6433C22.0133 16.4069 21.7028 17.1316 21.313 17.8046L22.5192 20.3075C21.8383 21.1931 21.0366 21.9811 20.1387 22.6467L17.6577 21.3964C16.9788 21.7738 16.2493 22.0713 15.482 22.2761L14.5668 24.8986C14.054 24.9655 13.531 25 13 25C12.3977 25 11.8058 24.9556 11.2274 24.87L10.3567 22.2315C9.59312 22.0133 8.8684 21.7028 8.19539 21.313L5.69253 22.5192C4.80686 21.8383 4.01891 21.0366 3.35335 20.1387L4.60363 17.6577C4.22591 16.9783 3.92828 16.2482 3.72347 15.4802L1.10114 14.5651C1.03442 14.0529 1 13.5305 1 13C1 12.3977 1.04437 11.8058 1.13002 11.2274L3.76849 10.3567C3.98673 9.59312 4.29716 8.8684 4.68697 8.19539L3.48079 5.69253C4.1617 4.80686 4.96344 4.01891 5.86135 3.35335L8.34226 4.60363C9.0217 4.22591 9.75179 3.92828 10.5198 3.72347L11.4349 1.10114C11.9471 1.03442 12.4695 1 13 1Z" stroke="white" stroke-width="1.98386" stroke-linecap="round" stroke-linejoin="round"/>
<path d="M13.0003 18.1422C15.8406 18.1422 18.1431 15.8396 18.1431 12.9993C18.1431 10.159 15.8406 7.85645 13.0003 7.85645C10.16 7.85645 7.85742 10.159 7.85742 12.9993C7.85742 15.8396 10.16 18.1422 13.0003 18.1422Z" stroke="white" stroke-width="1.98386" stroke-linecap="round" stroke-linejoin="round"/>
</svg>
